<svg width="40" height="40" viewBox="0 0 40 40" fill="none" xmlns="http://www.w3.org/2000/svg">
<path fill-rule="evenodd" clip-rule="evenodd" d="M20 20C24.9111 20 28.8889 16.0222 28.8889 11.1111C28.8889 6.2 24.9111 2.22222 20 2.22222C15.0889 2.22222 11.1111 6.2 11.1111 11.1111C11.1111 16.0222 15.0889 20 20 20ZM31.1111 11.1111C31.1111 17.25 26.1389 22.2222 20 22.2222C13.8611 22.2222 8.88889 17.25 8.88889 11.1111C8.88889 4.97222 13.8611 0 20 0C26.1389 0 31.1111 4.97222 31.1111 11.1111ZM3.58111 31.3467C2.46667 32.2467 2.22222 32.9211 2.22222 33.3333V37.7778H37.7778V33.3333C37.7778 32.9222 37.5333 32.2456 36.4178 31.3467C35.3289 30.4678 33.7044 29.63 31.7356 28.9056C27.8 27.4578 23.0589 26.6667 20 26.6667C16.9411 26.6667 12.2 27.4578 8.26444 28.9056C6.29556 29.63 4.67111 30.4678 3.58111 31.3467ZM20 24.4444C13.3256 24.4444 0 27.8167 0 33.3333V40H40V33.3333C40 27.8167 26.6756 24.4444 20 24.4444Z" fill="black"/>
</svg>
