<svg width="31" height="40" viewBox="0 0 31 40" fill="none" xmlns="http://www.w3.org/2000/svg">
<path d="M0 39.9284V8.92843H7.75V7.82129C7.75 5.669 8.50359 3.83927 10.0108 2.33207C11.518 0.824884 13.3477 0.0712891 15.5 0.0712891C17.6523 0.0712891 19.482 0.824884 20.9892 2.33207C22.4964 3.83927 23.25 5.669 23.25 7.82129V8.92843H31V39.9284H0ZM2.21429 37.7141H28.7857V11.1427H23.25V17.7856H21.0357V11.1427H9.96429V17.7856H7.75V11.1427H2.21429V37.7141ZM9.96429 8.92843H21.0357V7.82129C21.0357 6.26243 20.5028 4.9501 19.437 3.88429C18.3712 2.81848 17.0589 2.28557 15.5 2.28557C13.9411 2.28557 12.6288 2.81848 11.563 3.88429C10.4972 4.9501 9.96429 6.26243 9.96429 7.82129V8.92843Z" fill="black"/>
</svg>
